<svg xmlns="http://www.w3.org/2000/svg" viewBox="0 0 28 38"><defs><style>.cls-1{fill:#4285f4;}.cls-2{fill:#f4b400;}.cls-3{fill:#ea4335;}.cls-4{fill:#34a853;}</style></defs><g id="Layer_2" data-name="Layer 2"><g id="Layer_1-2" data-name="Layer 1"><path class="cls-1" d="M14,22.85a4.75,4.75,0,0,1-3.6-1.55A5.27,5.27,0,0,1,9,17.55V5a4.79,4.79,0,0,1,1.47-3.54A4.91,4.91,0,0,1,14,0a4.93,4.93,0,0,1,3.58,1.46A4.79,4.79,0,0,1,19.05,5V17.55A5.27,5.27,0,0,1,17.6,21.3,4.75,4.75,0,0,1,14,22.85Z"/><path class="cls-1" d="M14,19.85a1.86,1.86,0,0,0,1.48-.67,2.45,2.45,0,0,0,.57-1.63V5a1.9,1.9,0,0,0-.59-1.42,2.13,2.13,0,0,0-2.92,0A1.9,1.9,0,0,0,12,5V17.55a2.41,2.41,0,0,0,.58,1.63A1.83,1.83,0,0,0,14,19.85Z"/><path class="cls-2" d="M3,17.55H0a13.12,13.12,0,0,0,3.6,9.2c.23.25.46.47.7.7l1.81-2.36A10.2,10.2,0,0,1,3,17.55Z"/><path class="cls-3" d="M25,17.55a10.23,10.23,0,0,1-3.22,7.65A10.84,10.84,0,0,1,14,28.3a10.8,10.8,0,0,1-7.78-3.1l-.1-.11L4.3,27.45a13.6,13.6,0,0,0,8.2,3.75h3a13.67,13.67,0,0,0,8.9-4.45,13.12,13.12,0,0,0,3.6-9.2Z"/><rect class="cls-4" x="12.5" y="31.2" width="3" height="6.8"/></g></g></svg>