<svg xmlns="http://www.w3.org/2000/svg" viewBox="0 0 40 36"><defs><style>.cls-1{fill:#537aff;}.cls-2{fill:none;}.cls-3{fill:#0baf0f;}.cls-4{fill:#f34044;}.cls-5{fill:#ffd31f;}</style></defs><g id="Layer_2" data-name="Layer 2"><g id="Layer_1-2" data-name="Layer 1"><path class="cls-1" d="M20,28a8.37,8.37,0,0,0,8.52-8.52,8.16,8.16,0,0,0-2.45-6.05A8.28,8.28,0,0,0,20,11a8.3,8.3,0,0,0-8.48,8.48,8.28,8.28,0,0,0,2.43,6.07A8.13,8.13,0,0,0,20,28Z"/><path class="cls-1" d="M20,25a5.27,5.27,0,0,1-3.93-1.57,5.42,5.42,0,0,1-1.55-3.95A5.3,5.3,0,0,1,20,14a5.42,5.42,0,0,1,3.95,1.55,5.28,5.28,0,0,1,1.57,3.93A5.37,5.37,0,0,1,20,25Z"/><path class="cls-2" d="M33.83,8.1l2,2.38A4.07,4.07,0,0,0,33.83,8.1Z"/><path class="cls-2" d="M32,7.64H8a4,4,0,0,0-4,4V21.77L5.39,23,4,21.77v5.52a4,4,0,0,0,4,4h7.54L11.5,28l4,3.33H32a4,4,0,0,0,4-4V11.64a4,4,0,0,0-.19-1.16l-2-2.38A4,4,0,0,0,32,7.64Z"/><path class="cls-3" d="M35.81,10.48l4.19,5V7.35a2.9,2.9,0,0,0-.92-2.08A2.9,2.9,0,0,0,37,4.35H30.71L33.83,8.1A4.07,4.07,0,0,1,35.81,10.48Z"/><path class="cls-4" d="M35.81,10.48A4,4,0,0,1,36,11.64V27.29a4,4,0,0,1-4,4H15.54L21.25,36H37a2.92,2.92,0,0,0,2.08-.9A2.86,2.86,0,0,0,40,33V15.52Z"/><path class="cls-5" d="M8,31.29a4,4,0,0,1-4-4V21.77L0,18.2V33a2.88,2.88,0,0,0,.9,2.1A2.88,2.88,0,0,0,3,36H21.25l-5.71-4.71Z"/><path class="cls-1" d="M4,11.64a4,4,0,0,1,4-4H32a4,4,0,0,1,1.83.46L30.71,4.35H29.65L26,0H14L10.35,4.35H3a2.86,2.86,0,0,0-2.1.92A2.92,2.92,0,0,0,0,7.35V18.2l4,3.57Z"/></g></g></svg>